<svg width="37" height="37" fill="none" xmlns="http://www.w3.org/2000/svg"><path d="M18.502 37A18.49 18.49 0 011.409 25.584 18.5 18.5 0 015.422 5.42a18.494 18.494 0 0130.947 8.295 18.507 18.507 0 01-4.787 17.873A18.37 18.37 0 0118.502 37zM3.709 18.822c.088 8.14 6.733 14.681 14.871 14.638 8.139-.044 14.713-6.656 14.713-14.797 0-8.14-6.574-14.753-14.713-14.797-8.138-.043-14.783 6.498-14.87 14.638v.318zm10.002 7.08l-2.606-2.608 4.79-4.79-4.79-4.79 2.608-2.608 4.789 4.79 4.789-4.79 2.607 2.607-4.79 4.79 4.79 4.791-2.605 2.608-4.791-4.79-4.79 4.79h-.001z" fill="#5856D6"/></svg>