<svg width="35" height="27" fill="none" xmlns="http://www.w3.org/2000/svg"><path d="M3.553 27H0c0-5.965 4.772-10.8 10.658-10.8 5.886 0 10.658 4.835 10.658 10.8h-3.553c0-3.976-3.181-7.2-7.105-7.2-3.924 0-7.105 3.224-7.105 7.2zm21.304-6.462l-4.806-4.86 2.508-2.552 2.295 2.325 7.638-7.725L35 10.274l-10.146 10.26.003.004zm-14.2-6.138c-3.923 0-7.104-3.224-7.104-7.2S6.733 0 10.658 0c3.924 0 7.105 3.224 7.105 7.2-.005 3.974-3.183 7.195-7.105 7.2zm0-10.8c-1.94.002-3.52 1.582-3.548 3.548-.028 1.967 1.507 3.592 3.447 3.65 1.94.059 3.567-1.471 3.654-3.436v.72V7.2c0-1.988-1.59-3.6-3.552-3.6z" fill="#5856D6"/></svg>