<svg width="25" height="27" fill="none" xmlns="http://www.w3.org/2000/svg"><path d="M12.62 2.712c3.225 0 3.607.01 4.88.081 1.18.06 1.822.273 2.24.455.567.243.967.526 1.385.981.428.466.688.9.902 1.508.167.465.363 1.163.418 2.437.056 1.386.075 1.8.075 5.31s-.01 3.926-.075 5.311c-.055 1.285-.25 1.983-.418 2.438a4.277 4.277 0 01-.902 1.517 3.71 3.71 0 01-1.385.981c-.427.182-1.069.395-2.24.456-1.273.06-1.655.08-4.88.08-3.226 0-3.607-.01-4.88-.08-1.181-.061-1.823-.274-2.24-.456a3.863 3.863 0 01-1.395-.98 4.145 4.145 0 01-.902-1.518c-.167-.465-.362-1.163-.418-2.438-.056-1.386-.075-1.8-.075-5.31s.01-3.925.075-5.31c.056-1.285.25-1.983.418-2.438a4.149 4.149 0 01.902-1.508 3.633 3.633 0 011.394-.98c.428-.183 1.07-.395 2.24-.456 1.265-.06 1.646-.08 4.88-.08zm0-2.367c-3.282 0-3.69.02-4.983.081-1.283.06-2.166.283-2.937.607-.8.334-1.47.79-2.138 1.517a6.546 6.546 0 00-1.395 2.327C.87 5.717.665 6.667.61 8.073.554 9.48.535 9.924.535 13.495c0 3.57.01 4.016.075 5.422.055 1.395.26 2.356.557 3.196.307.86.725 1.598 1.395 2.326A5.915 5.915 0 004.7 25.957c.771.323 1.645.546 2.937.607 1.292.06 1.701.08 4.983.08 3.281 0 3.69-.01 4.982-.08 1.283-.061 2.166-.284 2.938-.607.8-.334 1.469-.79 2.138-1.518a6.547 6.547 0 001.394-2.326c.298-.84.502-1.79.558-3.196.056-1.406.074-1.851.074-5.422 0-3.57-.009-4.016-.074-5.422-.056-1.396-.26-2.357-.558-3.196a6.547 6.547 0 00-1.394-2.327 5.916 5.916 0 00-2.138-1.517C19.768.71 18.894.487 17.602.426c-1.292-.06-1.7-.08-4.982-.08z" fill="#fff"/><path d="M12.62 6.748c-3.43 0-6.21 3.025-6.21 6.757 0 3.732 2.78 6.757 6.21 6.757s6.209-3.024 6.209-6.757c0-3.732-2.789-6.757-6.21-6.757zm0 11.137c-2.222 0-4.026-1.963-4.026-4.38 0-2.418 1.804-4.38 4.025-4.38 2.222 0 4.026 1.963 4.026 4.38s-1.804 4.38-4.026 4.38zm7.901-11.41c0 .87-.65 1.578-1.45 1.578-.8 0-1.45-.708-1.45-1.578 0-.87.65-1.578 1.45-1.578.8 0 1.45.708 1.45 1.578z" fill="#fff"/></svg>