<svg width="269" height="300" fill="none" xmlns="http://www.w3.org/2000/svg"><g clip-path="url(#clip0)"><path d="M130.85 133.677c.052-.183.095-.368.129-.554 0-.069 0-.138.03-.202.03-.065.039-.258.047-.387.009-.129 0-.18 0-.27v-.602c0-.086 0-.24-.025-.361-.026-.12-.022-.15-.03-.223 0-.138-.043-.275-.069-.43v-.064l-9.58-43.184c-6.213.859-2.909.103-6.213.859-3.303.756 0 0-5.791 1.882l2.41 10.86-8.626-12.953a6.104 6.104 0 00-4.382-2.728 40.107 40.107 0 01-6.337-1.198 16.226 16.226 0 00-4.52-.64H73.288a16.204 16.204 0 00-4.524.64c-2.077.569-4.196.97-6.337 1.198a6.098 6.098 0 00-4.382 2.728L35.89 121.343 14.494 93.075c-5.117 3.355-2.444 1.237-5.117 3.355-2.672 2.118 0 0-4.605 4.335l26.545 35.06a6.085 6.085 0 004.297 2.389h1.052c.163 0 .33-.035.498-.06h.022a6.105 6.105 0 004.167-2.698l14.976-21.91 2.256 36.13c0 5.443 4.794 9.881 10.126 9.881h23.761c5.332 0 9.697-4.451 9.697-9.881l1.847-36.13 15.814 21.91c0 .025.038.051.056.081.017.03.098.133.15.202.051.069.159.215.249.318 0 .026.043.047.06.073a6.149 6.149 0 002.415 1.693c.154.056.309.111.468.159.079.024.159.044.241.06l.322.077c.103.022.21.035.318.052l.266.034h.846c.133 0 .262 0 .396-.026l.146-.021c.163 0 .33-.052.494-.086h.047c.186-.043.37-.096.55-.159h.021a6.14 6.14 0 001.465-.726 6.228 6.228 0 002.488-3.514l.021.004z" fill="url(#paint0_linear)"/><path d="M71.68 270.202H59.776v14.835H71.68v-14.835z" fill="url(#paint1_linear)"/><path d="M101.242 270.202H89.337v14.835h11.905v-14.835z" fill="url(#paint2_linear)"/><path d="M90.72 141.913H71.23c-12.528 0-16.756 10.143-16.756 22.12l3.78 111.183h17.112v-87.408a5.547 5.547 0 014.928-5.474c3.39-.386 6.298 2.149 6.298 5.328v87.554h17.107l4.455-111.183c-.004-11.977-4.91-22.12-17.433-22.12z" fill="url(#paint3_linear)"/><path d="M71.68 285.041v14.963H54.758a1.772 1.772 0 01-1.813-2.139c.076-.354.259-.677.524-.924 3.398-3.127 7.733-8.055 6.307-11.9" fill="url(#paint4_linear)"/><path d="M89.526 285.041v14.963h16.927a1.773 1.773 0 001.713-1.081 1.768 1.768 0 00-.424-1.982c-3.394-3.127-7.733-8.055-6.307-11.9" fill="url(#paint5_linear)"/><path d="M71.874 268.858H60.609v14.679h11.265v-14.679zm27.971 0H88.581v14.679h11.264v-14.679z" fill="#FFD9CB"/><path d="M89.887 141.913H71.444c-11.853 0-15.857 10.035-15.857 21.888l3.579 110.019h16.192v-86.481a5.402 5.402 0 014.66-5.408 5.314 5.314 0 014.164 1.298 5.32 5.32 0 011.796 3.973v86.618h16.192l4.21-110.019c0-11.853-4.64-21.888-16.493-21.888zM71.874 283.537v14.809h-16a1.765 1.765 0 01-1.631-1.106 1.762 1.762 0 01.416-1.927c3.214-3.093 7.303-7.969 5.967-11.776m28.135 0v14.809h16.016a1.76 1.76 0 001.216-3.033c-3.213-3.093-7.303-7.969-5.967-11.776" fill="#212121"/><path d="M80.792 88.774c23.267 0 42.128-19.873 42.128-44.387S104.059 0 80.792 0C57.526 0 38.665 19.873 38.665 44.387s18.86 44.387 42.127 44.387z" fill="url(#paint6_linear)"/><path d="M80.792 86.562c22.106 0 40.027-18.882 40.027-42.175 0-23.292-17.921-42.175-40.027-42.175S40.766 21.095 40.766 44.387c0 23.293 17.92 42.175 40.026 42.175z" fill="#5856D6"/><path d="M80.204 81.273c18.234 0 33.015-15.126 33.015-33.784 0-18.659-14.781-33.785-33.015-33.785S47.188 28.83 47.188 47.49c0 18.658 14.782 33.784 33.016 33.784z" fill="#4140A3"/><path opacity=".3" d="M80.633 79.984c18.234 0 33.016-15.125 33.016-33.784S98.867 12.416 80.633 12.416C62.4 12.416 47.618 27.54 47.618 46.2s14.781 33.784 33.015 33.784z" fill="#000"/><path d="M110.113 65.607l-5.448 19.113a1.92 1.92 0 001.32 2.373l7.59 2.163a1.92 1.92 0 002.373-1.32l5.448-19.112a1.921 1.921 0 00-1.321-2.374l-7.589-2.163a1.92 1.92 0 00-2.373 1.32z" fill="#BDBDBD"/><path d="M6.997 80.884l-.655.333a.855.855 0 00-.374 1.15l3.99 7.841a.855.855 0 001.15.374l.655-.333a.855.855 0 00.374-1.15l-3.99-7.841a.855.855 0 00-1.15-.374z" fill="#FFCFBE"/><path d="M.48 84.739l-.367.636a.855.855 0 00.313 1.168l7.478 4.317a.855.855 0 001.168-.313l.367-.636a.855.855 0 00-.313-1.168l-7.478-4.317a.855.855 0 00-1.168.313z" fill="#FFCFBE"/><path d="M5.495 90.21c-.963.545-5.985 3.823.472 9.82a2.317 2.317 0 002.947.159l4.554-3.372a2.316 2.316 0 00.812-2.612l-1.289-3.798a3.617 3.617 0 00-5.74-1.607l-1.413 1.181a1.959 1.959 0 01-.343.228zm113.983-14.573h-.734a.855.855 0 00-.855.855v5.048c0 .472.383.855.855.855h.734a.854.854 0 00.855-.855v-5.048a.854.854 0 00-.855-.855z" fill="#FFCFBE"/><path d="M113.636 80.9s-8.498.146-3.089 10.864l9.022-1.838.958-9.022a1.294 1.294 0 00-1.003-1.42 1.29 1.29 0 00-.63.02l-5.258 1.396z" fill="#FFCFBE"/><path d="M112.976 71.895l-.665.313c-.427.2-.61.71-.409 1.137l3.883 8.258a.856.856 0 001.138.41l.665-.313a.855.855 0 00.409-1.138l-3.883-8.257a.856.856 0 00-1.138-.41z" fill="#FFCFBE"/><path d="M111.39 73.223l-.665.313a.855.855 0 00-.41 1.137l3.261 6.932c.201.427.71.61 1.137.41l.665-.313a.856.856 0 00.41-1.138l-3.261-6.931a.854.854 0 00-1.137-.41z" fill="#FFCFBE"/><path d="M109.726 75.418l-.665.313c-.427.2-.61.71-.409 1.137l3.053 6.492a.856.856 0 001.138.41l.664-.313c.428-.2.611-.71.41-1.137l-3.053-6.492a.856.856 0 00-1.138-.41z" fill="#FFCFBE"/><path d="M108.365 78.224l-.665.313a.855.855 0 00-.409 1.137l2.596 5.52a.855.855 0 001.138.41l.664-.312a.854.854 0 00.41-1.138l-2.596-5.52a.856.856 0 00-1.138-.41z" fill="#FFCFBE"/><path d="M130.017 132.71c.047-.176.09-.356.124-.537 0-.064 0-.128.03-.193.031-.064.039-.249.048-.374.008-.124 0-.176 0-.266v-.58c0-.086 0-.236-.022-.352-.021-.116 0-.142-.03-.215-.03-.073-.043-.266-.069-.4v-.06l-9.477-41.895c-6.143.833-2.878.103-6.143.833-3.265.73 0 0-5.731 1.826l2.384 10.53-8.528-12.558a6.038 6.038 0 00-4.334-2.646A40.252 40.252 0 0192 84.663a16.29 16.29 0 00-4.468-.623H73.08c-1.511 0-3.015.21-4.468.623-2.055.552-4.151.94-6.268 1.16a6.052 6.052 0 00-4.322 2.646l-21.91 32.277-21.158-27.405c-5.061 3.252-2.419 1.203-5.061 3.252-2.642 2.05 0 0-4.554 4.206l26.25 33.995a6.022 6.022 0 004.248 2.316h1.04c.163 0 .326-.03.494-.056h.03a6.076 6.076 0 004.124-2.612l15.638-23.083 1.791 36.865a9.62 9.62 0 009.593 9.588h23.496a9.618 9.618 0 009.593-9.588l1.787-36.865 15.689 23.091.06.078.147.193c.077.107.159.215.244.314l.065.068a6.106 6.106 0 002.315 1.616 6.642 6.642 0 00.533.18l.236.06.318.073c.103.022.211.035.314.048l.266.034h.838c.129 0 .262 0 .391-.026l.142-.021c.163-.022.326-.048.49-.082h.047a5.904 5.904 0 001.993-.855 6.01 6.01 0 002.462-3.402l.043-.018z" fill="#5856D6"/><path d="M80.311 76.118c15.999 0 28.969-12.97 28.969-28.968 0-16-12.97-28.969-28.969-28.969S51.342 31.151 51.342 47.15c0 15.998 12.97 28.968 28.969 28.968z" fill="#E53935"/><path d="M86.7 74.997a5.91 5.91 0 10-11.82 0V85.08a5.91 5.91 0 1011.82 0V74.997z" fill="#FFE0B2"/><path d="M80.311 74.576c12.373 0 22.404-10.03 22.404-22.404s-10.03-22.404-22.404-22.404c-12.373 0-22.404 10.03-22.404 22.404 0 12.373 10.03 22.404 22.404 22.404z" fill="#FFE0B2"/><path d="M72.84 47.343a1.353 1.353 0 100-2.707 1.353 1.353 0 000 2.707zm14.938 0a1.353 1.353 0 100-2.707 1.353 1.353 0 000 2.707z" fill="#DB7657"/><path d="M85.844 59.711c0 1.809-2.478 3.278-5.537 3.278-3.059 0-5.53-1.486-5.53-3.278 0-1.791 11.067-1.808 11.067 0z" fill="#fff"/><path d="M69.236 27.839S65.63 45.882 104.257 42.26l-9.528-15.707-25.493 1.285z" fill="#E53935"/><path d="M59.246 54.586c1.204-.43 1.581-2.461.84-4.537-.74-2.077-2.316-3.412-3.52-2.982-1.205.43-1.582 2.46-.841 4.537.74 2.076 2.316 3.41 3.52 2.982z" fill="#FFCFBE"/><path d="M83.593 44.64h-5.602v2.703h5.602V44.64z" fill="#536DFE"/><path d="M114.83 71.34a1.207 1.207 0 100-2.413 1.207 1.207 0 000 2.414zm-35.464 42.867a8.688 8.688 0 00-12.291.03 8.692 8.692 0 00.03 12.291l12.321 12.257 12.257-12.317a8.688 8.688 0 00.081-12.399 8.702 8.702 0 00-6.228-2.531 8.698 8.698 0 00-6.17 2.669z" fill="#fff"/><path d="M105.652 52.439c.749-2.072.382-4.104-.82-4.54-1.202-.434-2.784.893-3.534 2.965-.749 2.072-.382 4.104.82 4.539 1.202.435 2.784-.892 3.534-2.964z" fill="#FFCFBE"/><path d="M71.942 84.036a1.641 1.641 0 100-3.282 1.641 1.641 0 000 3.282z" fill="#fff"/><path d="M72.093 82.395h-.43a.494.494 0 00-.494.494v15.814c0 .272.221.494.494.494h.43a.494.494 0 00.494-.494V82.889a.494.494 0 00-.494-.494zm18.365 1.641a1.641 1.641 0 100-3.283 1.641 1.641 0 000 3.283z" fill="#fff"/><path d="M90.673 82.395h-.43a.494.494 0 00-.493.494v13.013c0 .272.22.494.494.494h.43a.494.494 0 00.493-.495V82.89a.494.494 0 00-.494-.494z" fill="#fff"/><path d="M68.106 56.897c6.024 0 10.908-4.883 10.908-10.907 0-6.025-4.884-10.908-10.908-10.908-6.024 0-10.908 4.883-10.908 10.908 0 6.024 4.884 10.907 10.908 10.907z" fill="#536DFE"/><path opacity=".3" d="M68.106 53.632a7.643 7.643 0 100-15.285 7.643 7.643 0 000 15.285z" fill="#000"/><path d="M93.35 56.897c6.024 0 10.907-4.883 10.907-10.907 0-6.025-4.883-10.908-10.907-10.908S82.442 39.965 82.442 45.99c0 6.024 4.884 10.907 10.908 10.907z" fill="#536DFE"/><path opacity=".3" d="M93.35 53.632a7.642 7.642 0 007.642-7.642 7.642 7.642 0 10-15.285 0 7.643 7.643 0 007.643 7.642z" fill="#000"/><path d="M267.427 218.215c-.142 10.075-8.644 18.044-18.722 18.044h-1.401a4.728 4.728 0 00-3.321 1.34 4.643 4.643 0 00-1.349 2.355 4.303 4.303 0 00-.141 1.112v17.79c.005 3.42-.974 6.77-2.819 9.649a25.504 25.504 0 00-4.193 13.726 8.59 8.59 0 01-8.734 8.593c-4.725-.086-8.407-4.138-8.407-8.85v-4.473l-2.337.275v4.455a8.6 8.6 0 01-2.568 6.128 8.597 8.597 0 01-6.17 2.465c-4.726-.086-8.408-4.138-8.408-8.85v-2.273c-2.337.971-15.582.971-19.259.03l-.997-.077v2.577a8.6 8.6 0 01-2.568 6.128 8.587 8.587 0 01-6.17 2.465c-4.726-.086-8.408-4.138-8.408-8.85v-3.704l-.777-.068v4.051a8.565 8.565 0 01-8.734 8.592c-4.296-.077-7.763-3.467-8.33-7.651-.05-.398-.076-.798-.078-1.199v-18.658a28.516 28.516 0 016.079-17.614 5.278 5.278 0 00.147-6.242c-4.365-6.388-10.814-17.184-10.608-24.814.056-2.213.666-4.154 2.045-5.658.086-.095.172-.189.258-.275 6.277-6.573 17.335-1.401 16.377 7.638a25.368 25.368 0 00.661 9.022 27.886 27.886 0 001.775 4.842 8.208 8.208 0 008.407 4.674c1.166-.14 2.34-.21 3.514-.21h36.04a10.125 10.125 0 009.585-6.874 9.887 9.887 0 00.545-3.265V196.52a5.47 5.47 0 011.657-3.918 5.464 5.464 0 013.967-1.538 5.301 5.301 0 013.763 1.753 5.861 5.861 0 011.521 3.931 2.898 2.898 0 00.847 2.043 2.887 2.887 0 002.044.844h16.979a18.29 18.29 0 0116.997 11.489 18.313 18.313 0 011.313 7.091h-.022z" fill="#F3AD55"/><path d="M160.412 284.358a8.598 8.598 0 01-8.468 6.444c-4.296-.077-7.763-3.467-8.33-7.651 5.19-1.401 12.381-2.367 16.798 1.207zm17.923 0a8.595 8.595 0 01-8.472 6.444c-4.296-.077-7.759-3.467-8.326-7.651 5.177-1.401 12.381-2.367 16.798 1.207zm37.402 0a8.595 8.595 0 01-8.472 6.444c-4.296-.077-7.759-3.467-8.326-7.651 5.19-1.401 12.381-2.367 16.798 1.207zm19.478 0a8.596 8.596 0 01-8.468 6.444c-4.296-.077-7.763-3.467-8.33-7.651 5.19-1.401 12.382-2.367 16.798 1.207zm-76.72-58.968c-6.053-2.432-13.442-6.874-19.332-10.74.056-2.213.666-4.155 2.045-5.658.086-.095.172-.189.258-.275 6.276-6.573 17.334-1.401 16.376 7.638a25.37 25.37 0 00.653 9.035zm7.33 9.361s16.673 20.986 43.944-.052l-43.944.052zm52.515-39.008s10.13 13.244 0 29.608v-29.608zm24.153 45.19s-8.919 11.088-.112 19.895l.112-19.895z" fill="#FBDCA3"/><path opacity=".1" d="M243.275 238.596c-.662.623-.43 1.224-.641 2.148l-28.968-7.587c1.555-1.203 3.488-2.629 4.128-4.528 3.48 2.681 10.354 7.2 25.481 9.967z" fill="#000"/><path d="M243.983 237.599a4.643 4.643 0 00-1.349 2.355l-28.233-7.364a10.075 10.075 0 003.398-4.756c3.475 2.698 11.045 6.999 26.184 9.765z" fill="#383F4D"/><path opacity=".1" d="M218.856 229.394s8.832 6.646 23.628 8.704l-23.628-8.704z" fill="#000"/><path d="M218.856 228.621s8.832 6.641 23.628 8.699l-23.628-8.699z" fill="#F3AD55"/><path opacity=".1" d="M240.937 229.248s14.805 4.674 18.701-10.13l-18.701 10.13z" fill="#000"/><path d="M240.937 228.466s14.805 4.678 18.701-10.13l-18.701 10.13z" fill="#FBDCA3"/><path d="M267.431 219.118c.862 0 1.56-1.222 1.56-2.728 0-1.507-.698-2.728-1.56-2.728-.861 0-1.559 1.221-1.559 2.728 0 1.506.698 2.728 1.559 2.728z" fill="#383F4D"/><path opacity=".1" d="M149.379 272.492l3.119-24.917s-9.352 14.804-3.119 24.917z" fill="#000"/><path d="M153.276 247.558s-9.349 14.804-3.115 24.917l3.115-24.917z" fill="#FBDCA3"/></g><defs><linearGradient id="paint0_linear" x1="67.93" y1="159.578" x2="67.93" y2="83.481" gradientUnits="userSpaceOnUse"><stop stop-color="gray" stop-opacity=".25"/><stop offset=".54" stop-color="gray" stop-opacity=".12"/><stop offset="1" stop-color="gray" stop-opacity=".1"/></linearGradient><linearGradient id="paint1_linear" x1="1716.16" y1="9856.46" x2="2046.15" y2="9856.46" gradientUnits="userSpaceOnUse"><stop stop-color="gray" stop-opacity=".25"/><stop offset=".54" stop-color="gray" stop-opacity=".12"/><stop offset="1" stop-color="gray" stop-opacity=".1"/></linearGradient><linearGradient id="paint2_linear" x1="2564.87" y1="9856.46" x2="2894.74" y2="9856.46" gradientUnits="userSpaceOnUse"><stop stop-color="gray" stop-opacity=".25"/><stop offset=".54" stop-color="gray" stop-opacity=".12"/><stop offset="1" stop-color="gray" stop-opacity=".1"/></linearGradient><linearGradient id="paint3_linear" x1="22263.3" y1="78300.3" x2="28970.6" y2="78300.3" gradientUnits="userSpaceOnUse"><stop stop-color="gray" stop-opacity=".25"/><stop offset=".54" stop-color="gray" stop-opacity=".12"/><stop offset="1" stop-color="gray" stop-opacity=".1"/></linearGradient><linearGradient id="paint4_linear" x1="7751.6" y1="11983.9" x2="8572.62" y2="11983.9" gradientUnits="userSpaceOnUse"><stop stop-color="gray" stop-opacity=".25"/><stop offset=".54" stop-color="gray" stop-opacity=".12"/><stop offset="1" stop-color="gray" stop-opacity=".1"/></linearGradient><linearGradient id="paint5_linear" x1="9391.27" y1="11983.9" x2="10212.5" y2="11983.9" gradientUnits="userSpaceOnUse"><stop stop-color="gray" stop-opacity=".25"/><stop offset=".54" stop-color="gray" stop-opacity=".12"/><stop offset="1" stop-color="gray" stop-opacity=".1"/></linearGradient><linearGradient id="paint6_linear" x1="15883.6" y1="18345.2" x2="15883.6" y2="0" gradientUnits="userSpaceOnUse"><stop stop-color="gray" stop-opacity=".25"/><stop offset=".54" stop-color="gray" stop-opacity=".12"/><stop offset="1" stop-color="gray" stop-opacity=".1"/></linearGradient><clipPath id="clip0"><path fill="#fff" d="M0 0h268.987v300H0z"/></clipPath></defs></svg>