<svg width="36" height="36" fill="none" xmlns="http://www.w3.org/2000/svg"><path d="M18.727 36a3.783 3.783 0 01-2.694-1.116L1.116 19.965a3.797 3.797 0 01-1.104-2.984L.964 4.48A3.787 3.787 0 014.479.973L16.98.021C17.078 0 17.177 0 17.274 0a3.825 3.825 0 012.691 1.116l14.919 14.917a3.808 3.808 0 010 5.387L21.42 34.884A3.784 3.784 0 0118.727 36zM17.273 3.808L4.76 4.76l-.952 12.513 14.92 14.919L32.19 18.729 17.273 3.81zm-6.625 10.648a3.808 3.808 0 11-.001-7.617 3.808 3.808 0 01.001 7.617z" fill="#5856D6"/></svg>