<svg width="325" height="84" fill="none" xmlns="http://www.w3.org/2000/svg"><path d="M24.648 75.382C45.48 83.134 52.883 84 104.466 84c32.657-.647 71.649-2.996 97.136-3.708 44.267-1.238 69.609-1.533 100.345-8.831 18.619-4.421 27.521-23.844 19.984-41.497-1.084-2.538-2.175-5.08-3.249-7.571-6.795-15.764-23.819-24.282-40.668-21.295-43.719 7.75-100.928 14.01-148.115 12.906-44.394-1.038-57.632-3.662-81.886-10.914A35.543 35.543 0 005.2 22.873l-1.412 3.21c-8.474 19.269 1.186 41.978 20.86 49.299z" fill="#FBDCA3"/></svg>